# xmcd
#
# Track frame offsets: 
#        150
#        16427
#        27992
#        39655
#        53050
#        70365
#        83050
#        96630
#        113022
#        130260
#
# Disc length: 1921 seconds
#
# Revision: 2
# Processed by: cddbd v1.4PL0 Copyright (c) Steve Scherf et al.
# Submitted via: ExactAudioCopy v0.90b3
#
DISCID=85077f0a
DTITLE=Ray Price - Super Hits
DYEAR=1900
DGENRE=Country
TTITLE0=Release Me
TTITLE1=Crazy Arms
TTITLE2=My Shoes Keep Walking Back To You
TTITLE3=Heartaches By The Number
TTITLE4=She's Got To Be A Saint
TTITLE5=Invitation To The Blues
TTITLE6=City Lights
TTITLE7=I Won't Mention It Again
TTITLE8=For The Good Times
TTITLE9=Danny Boy
EXTD=
EXTT0=
EXTT1=
EXTT2=
EXTT3=
EXTT4=
EXTT5=
EXTT6=
EXTT7=
EXTT8=
EXTT9=
PLAYORDER=
